<?xml version="1.0" encoding="UTF-8"?><svg style="width: 100%" xmlns="http://www.w3.org/2000/svg" xmlns:xlink="http://www.w3.org/1999/xlink" viewBox="0 0 270.14 206.08"><defs><style>.cls-1{fill:#6464bf;}.cls-2{fill:#fff;}.cls-3{mix-blend-mode:multiply;}.cls-3,.cls-4{fill:#5c5cbf;}.cls-5{fill:#7873e5;}.cls-6{isolation:isolate;}.cls-7{fill:#f7f6ef;}.cls-8{fill:#f7a75e;}.cls-9{stroke:#aeaaf9;stroke-miterlimit:10;}.cls-9,.cls-10{fill:none;}.cls-11{opacity:.4;}.cls-12{fill:#c16a1b;}.cls-13{fill:#5353c1;}.cls-14{clip-path:url(#clippath);}.cls-15{opacity:.3;}.cls-15,.cls-16{fill:#aeaaf9;}.cls-17{fill:#4040a0;}.cls-18{fill:#8d81f8;}.cls-19{fill:#4646af;}</style><clipPath id="clippath"><path class="cls-10" d="M205.07,164.58l-.76-130.08c0-1.34-1.12-2.4-2.45-2.36l-114.58,3.77c-.12,0-.24,.02-.35,.05-1.11,.2-1.95,1.17-1.95,2.33V170.4c0,.39,.11,.76,.28,1.09l.36-.07c.39,.74,.79,1.33,1.69,1.35l115.39,2.7c1.34,.03,2.44-1.05,2.43-2.39l-.05-8.5Z"/></clipPath></defs><g class="cls-6"><g id="OBJECTS"><g><path class="cls-15" d="M69.38,188.77c-1.73,.32-3.52,.72-4.92,1.79-1.4,1.07-2.3,3-1.66,4.64,.84,2.16,3.6,2.68,5.9,2.88,40.99,3.49,82.08,5.66,123.21,6.5,10.63,.22,21.29,.34,31.85-.88,8.71-1.01,17.28-2.93,25.79-5.04,6.45-1.6,13.02-3.37,18.48-7.15,.91-.63,1.84-1.41,2.06-2.49,.49-2.4-2.61-3.83-5.04-4.14-11.06-1.45-22.24,.65-33.31,2.03-44.13,5.49-88.53-.45-132.76-.88-9.71-.09-20.06,.97-29.6,2.74Z"/><g><g><path class="cls-18" d="M215.52,199.11l45.2-10.67V40.26c0-2.99-2.06-5.59-4.97-6.27l-46.88-10.95V198.54l6.65,.56Z"/><g><rect class="cls-17" x="234.69" y="181.28" width=".6" height="8.78"/><rect class="cls-17" x="235.94" y="181.02" width=".6" height="8.78"/><rect class="cls-17" x="237.18" y="180.75" width=".6" height="8.78"/><rect class="cls-17" x="238.43" y="180.48" width=".6" height="8.78"/><rect class="cls-17" x="239.68" y="180.21" width=".6" height="8.78"/><rect class="cls-17" x="240.93" y="179.94" width=".6" height="8.78"/><rect class="cls-17" x="242.18" y="179.68" width=".6" height="8.78"/><rect class="cls-17" x="243.43" y="179.41" width=".6" height="8.78"/></g><g><path class="cls-16" d="M73.75,193.21l141.78,5.9V29.46c0-3.64-3.02-6.55-6.65-6.42l-128.65,4.59c-3.45,.12-6.19,2.96-6.2,6.41l-.27,159.17Z"/><path class="cls-13" d="M203.6,184.13l-116.73-2.7c-.36,0-.66-.31-.65-.68h0c0-.36,.31-.66,.68-.65l116.73,2.7c.36,0,.66,.31,.65,.68h0c0,.36-.31,.66-.68,.65Z"/></g></g><g><path class="cls-16" d="M69.01,37.42L2.46,27.23C1.17,27.03,0,28.04,0,29.35L.4,176.61c0,1.26,1.09,2.25,2.35,2.12l65.95-6.54c1.09-.11,1.93-1.03,1.93-2.12l.2-130.53c0-1.06-.77-1.96-1.81-2.12Z"/><path class="cls-5" d="M71.68,36.27L3.97,25.9c-1.32-.2-2.51,.82-2.51,2.16l.4,149.84c0,1.28,1.11,2.29,2.39,2.16l67.11-6.65c1.11-.11,1.96-1.04,1.96-2.16l.2-132.82c0-1.08-.78-1.99-1.85-2.15Z"/></g><path class="cls-9" d="M87.28,35.92l114.58-3.77c1.34-.04,2.44,1.02,2.45,2.36l.81,138.58c0,1.34-1.09,2.42-2.43,2.39l-115.39-2.7c-1.29-.03-2.32-1.08-2.32-2.37V38.29c0-1.28,1.02-2.33,2.3-2.37Z"/><g><path class="cls-1" d="M205.07,164.58l-.76-130.08c0-1.34-1.12-2.4-2.45-2.36l-114.58,3.77c-1.28,.04-2.3,1.09-2.3,2.37V170.4c0,.39,.11,.76,.28,1.09l44.98-8.65,74.84,1.75Z"/><polygon class="cls-17" points="130.24 162.83 205.07 164.58 204.36 43.72 130.24 46.16 130.24 162.83"/><path class="cls-4" d="M201.86,32.14l-114.58,3.77c-.92,.03-1.36,.66-1.73,1.45l44.69,8.8,74.13-2.44h0l-.05-9.22c0-1.34-1.12-2.4-2.45-2.36Z"/><path class="cls-4" d="M87.3,172.77l115.39,2.7c1.34,.03,2.44-1.05,2.43-2.39l-.05-8.5-74.84-1.75-44.63,8.58c.39,.74,.79,1.34,1.69,1.36Z"/></g><g><polygon class="cls-13" points="7.29 173.42 29.37 174.46 88.32 169.26 87.25 40.96 29.99 32.6 7.08 33.02 7.29 173.42"/><polygon class="cls-18" points="7.08 33.02 7.29 173.42 29.37 174.46 29.99 32.6 7.08 33.02"/><path class="cls-13" d="M15.41,72.79l-5.58-.4v8.18s5.15,.28,5.15,.28c.14,.02,.29,.02,.43,.02,2.23,0,4.04-1.81,4.04-4.04s-1.81-4.04-4.04-4.04Z"/><path class="cls-13" d="M15.66,124.35l-5.82-.32v8.09l5.39,.3c.14,.02,.29,.02,.43,.02,2.23,0,4.04-1.81,4.04-4.04s-1.81-4.04-4.04-4.04Z"/><path class="cls-16" d="M13.88,76.44c0,2.23-1.81,4.04-4.04,4.04s-4.04-1.81-4.04-4.04,1.81-4.04,4.04-4.04,4.04,1.81,4.04,4.04Z"/><path class="cls-16" d="M13.88,128.07c0,2.23-1.81,4.04-4.04,4.04s-4.04-1.81-4.04-4.04,1.81-4.04,4.04-4.04,4.04,1.81,4.04,4.04Z"/><polygon class="cls-19" points="33.08 36.15 84.58 43.78 85.89 165.77 31.99 171.22 33.08 36.15"/></g><g class="cls-14"><ellipse class="cls-3" cx="158.33" cy="165.26" rx="18.28" ry="1.55"/><g><path class="cls-12" d="M161.06,50.14c-31.67,0-57.34,25.67-57.34,57.34s25.67,57.34,57.34,57.34,57.34-25.67,57.34-57.34-25.67-57.34-57.34-57.34Zm0,99.64c-23.36,0-42.3-18.94-42.3-42.3s18.94-42.3,42.3-42.3,42.3,18.94,42.3,42.3-18.94,42.3-42.3,42.3Z"/><polygon class="cls-12" points="172.99 96.52 176.69 96.52 178.44 90.55 172.99 96.52"/><polygon class="cls-12" points="172.99 119.49 176.69 119.49 176.04 125.42 172.99 119.49"/><path class="cls-8" d="M157.36,50.14c-31.67,0-57.34,25.67-57.34,57.34s25.67,57.34,57.34,57.34,57.34-25.67,57.34-57.34-25.67-57.34-57.34-57.34Zm0,99.64c-23.36,0-42.3-18.94-42.3-42.3s18.94-42.3,42.3-42.3,42.3,18.94,42.3,42.3-18.94,42.3-42.3,42.3Z"/><g class="cls-11"><path class="cls-7" d="M157.36,65.19c5.43,0,10.61,1.03,15.37,2.89l6.67-13.55c-6.79-2.83-14.23-4.39-22.04-4.39-.57,0-1.14,.01-1.7,.03-2.35,4.83-5.01,10.28-7.85,16.11,3.07-.71,6.27-1.1,9.55-1.1Z"/><path class="cls-7" d="M118.99,125.26c-2.79,5.71-5.45,11.14-7.88,16.1,4.73,6.45,10.77,11.87,17.73,15.87l6.67-13.54c-7.18-4.34-12.96-10.77-16.52-18.44Z"/><path class="cls-7" d="M204.03,74.16c-2.5,5.12-5.18,10.61-7.95,16.29,2.29,5.21,3.58,10.97,3.58,17.02,0,19.79-13.6,36.4-31.96,41.02-2.97,6.06-5.67,11.58-7.96,16.27,11.38-.46,21.9-4.24,30.63-10.4l24.28-49.31c-.48-11.5-4.34-22.12-10.62-30.9Z"/></g></g></g></g><g><path class="cls-2" d="M111.01,57.02l1.79,3.27c.33,.6,.82,1.09,1.42,1.42l3.27,1.79-3.27,1.79c-.6,.33-1.09,.82-1.42,1.42l-1.79,3.27-1.79-3.27c-.33-.6-.82-1.09-1.42-1.42l-3.27-1.79,3.27-1.79c.6-.33,1.09-.82,1.42-1.42l1.79-3.27Z"/><path class="cls-18" d="M57.71,16.36l1.79,3.27c.33,.6,.82,1.09,1.42,1.42l3.27,1.79-3.27,1.79c-.6,.33-1.09,.82-1.42,1.42l-1.79,3.27-1.79-3.27c-.33-.6-.82-1.09-1.42-1.42l-3.27-1.79,3.27-1.79c.6-.33,1.09-.82,1.42-1.42l1.79-3.27Z"/><path class="cls-18" d="M196.73,199.51l.91,1.66c.17,.3,.42,.55,.72,.72l1.66,.91-1.66,.91c-.3,.17-.55,.42-.72,.72l-.91,1.66-.91-1.66c-.17-.3-.42-.55-.72-.72l-1.66-.91,1.66-.91c.3-.17,.55-.42,.72-.72l.91-1.66Z"/><path class="cls-18" d="M246.12,96.39l.91,1.66c.17,.3,.42,.55,.72,.72l1.66,.91-1.66,.91c-.3,.17-.55,.42-.72,.72l-.91,1.66-.91-1.66c-.17-.3-.42-.55-.72-.72l-1.66-.91,1.66-.91c.3-.17,.55-.42,.72-.72l.91-1.66Z"/><path class="cls-18" d="M70.69,137.83l.91,1.66c.17,.3,.42,.55,.72,.72l1.66,.91-1.66,.91c-.3,.17-.55,.42-.72,.72l-.91,1.66-.91-1.66c-.17-.3-.42-.55-.72-.72l-1.66-.91,1.66-.91c.3-.17,.55-.42,.72-.72l.91-1.66Z"/><path class="cls-18" d="M222.39,0l.91,1.66c.17,.3,.42,.55,.72,.72l1.66,.91-1.66,.91c-.3,.17-.55,.42-.72,.72l-.91,1.66-.91-1.66c-.17-.3-.42-.55-.72-.72l-1.66-.91,1.66-.91c.3-.17,.55-.42,.72-.72l.91-1.66Z"/><path class="cls-18" d="M66.85,182.2l.91,1.66c.17,.3,.42,.55,.72,.72l1.66,.91-1.66,.91c-.3,.17-.55,.42-.72,.72l-.91,1.66-.91-1.66c-.17-.3-.42-.55-.72-.72l-1.66-.91,1.66-.91c.3-.17,.55-.42,.72-.72l.91-1.66Z"/><path class="cls-2" d="M162.22,96.2l.91,1.66c.17,.3,.42,.55,.72,.72l1.66,.91-1.66,.91c-.3,.17-.55,.42-.72,.72l-.91,1.66-.91-1.66c-.17-.3-.42-.55-.72-.72l-1.66-.91,1.66-.91c.3-.17,.55-.42,.72-.72l.91-1.66Z"/><path class="cls-18" d="M245.31,87.61l.58,1.06c.11,.19,.27,.35,.46,.46l1.06,.58-1.06,.58c-.19,.11-.35,.27-.46,.46l-.58,1.06-.58-1.06c-.11-.19-.27-.35-.46-.46l-1.06-.58,1.06-.58c.19-.11,.35-.27,.46-.46l.58-1.06Z"/><path class="cls-18" d="M65.71,27.41l.58,1.06c.11,.19,.27,.35,.46,.46l1.06,.58-1.06,.58c-.19,.11-.35,.27-.46,.46l-.58,1.06-.58-1.06c-.11-.19-.27-.35-.46-.46l-1.06-.58,1.06-.58c.19-.11,.35-.27,.46-.46l.58-1.06Z"/><path class="cls-18" d="M57.96,179.58l.58,1.06c.11,.19,.27,.35,.46,.46l1.06,.58-1.06,.58c-.19,.11-.35,.27-.46,.46l-.58,1.06-.58-1.06c-.11-.19-.27-.35-.46-.46l-1.06-.58,1.06-.58c.19-.11,.35-.27,.46-.46l.58-1.06Z"/><path class="cls-2" d="M190.27,37.26l.58,1.06c.11,.19,.27,.35,.46,.46l1.06,.58-1.06,.58c-.19,.11-.35,.27-.46,.46l-.58,1.06-.58-1.06c-.11-.19-.27-.35-.46-.46l-1.06-.58,1.06-.58c.19-.11,.35-.27,.46-.46l.58-1.06Z"/><path class="cls-2" d="M97.56,163.71l.58,1.06c.11,.19,.27,.35,.46,.46l1.06,.58-1.06,.58c-.19,.11-.35,.27-.46,.46l-.58,1.06-.58-1.06c-.11-.19-.27-.35-.46-.46l-1.06-.58,1.06-.58c.19-.11,.35-.27,.46-.46l.58-1.06Z"/><path class="cls-2" d="M229.16,74.73l.58,1.06c.11,.19,.27,.35,.46,.46l1.06,.58-1.06,.58c-.19,.11-.35,.27-.46,.46l-.58,1.06-.58-1.06c-.11-.19-.27-.35-.46-.46l-1.06-.58,1.06-.58c.19-.11,.35-.27,.46-.46l.58-1.06Z"/><path class="cls-2" d="M154.11,92.02l.58,1.06c.11,.19,.27,.35,.46,.46l1.06,.58-1.06,.58c-.19,.11-.35,.27-.46,.46l-.58,1.06-.58-1.06c-.11-.19-.27-.35-.46-.46l-1.06-.58,1.06-.58c.19-.11,.35-.27,.46-.46l.58-1.06Z"/><path class="cls-2" d="M104.88,50.32l.58,1.06c.11,.19,.27,.35,.46,.46l1.06,.58-1.06,.58c-.19,.11-.35,.27-.46,.46l-.58,1.06-.58-1.06c-.11-.19-.27-.35-.46-.46l-1.06-.58,1.06-.58c.19-.11,.35-.27,.46-.46l.58-1.06Z"/></g></g><path class="cls-8" d="M175.98,100.79c2.7,.93,5.4,1.86,8.1,2.79,1.18,.41,1.95-1.38,.77-1.79-2.19-.75-4.37-1.51-6.56-2.26,.07-.04,.15-.07,.22-.11,2.24-1.06,4.48-2.13,6.72-3.19,1.13-.54,.39-2.34-.75-1.8-1.79,.85-3.59,1.7-5.38,2.56,.77-1.37,1.55-2.75,2.32-4.12,.61-1.09-1.18-1.85-1.79-.77-1.19,2.11-2.37,4.22-3.56,6.33-1.4,.67-2.8,1.33-4.2,2,.86-1.54,1.73-3.08,2.59-4.61,.61-1.09-1.18-1.85-1.79-.77-1.28,2.27-2.56,4.55-3.84,6.82-.9,.43-1.81,.86-2.71,1.29-.02,.01-.05,.02-.07,.04l-6.05-4.71,.39-2.83c2.03-1.72,4.07-3.45,6.1-5.17,.95-.81-.22-2.36-1.18-1.55-1.51,1.28-3.02,2.56-4.53,3.84l.63-4.6c2.03-1.72,4.07-3.45,6.1-5.17,.95-.81-.22-2.36-1.18-1.55-1.51,1.28-3.02,2.56-4.53,3.84l.92-6.72c.17-1.24-1.76-1.51-1.93-.26l-.91,6.66-2.97-5.15c-.62-1.08-2.17,.11-1.55,1.18,1.36,2.37,2.73,4.74,4.09,7.11l-.59,4.35-2.97-5.15c-.62-1.08-2.17,.11-1.55,1.18,1.36,2.37,2.73,4.74,4.09,7.11l-.36,2.66-7.1,2.89c-.66-.57-1.32-1.15-1.98-1.72-.35-2.79-.7-5.59-1.05-8.38-.16-1.24-2.09-.99-1.93,.26,.26,2.07,.52,4.14,.78,6.21-1.17-1.01-2.34-2.03-3.51-3.04-.35-2.79-.7-5.58-1.05-8.37-.16-1.24-2.09-.99-1.93,.26,.26,2.07,.52,4.13,.78,6.2-1.84-1.59-3.67-3.18-5.51-4.78-.95-.82-2.14,.71-1.2,1.53,1.64,1.43,3.29,2.85,4.93,4.28l-5.33-.3c-1.24-.07-1.52,1.86-.26,1.93,2.66,.15,5.32,.3,7.99,.44,1.1,.96,2.2,1.91,3.3,2.87-1.77-.1-3.54-.2-5.32-.3-1.24-.07-1.52,1.86-.26,1.93,2.66,.15,5.32,.3,7.97,.44,.64,.55,1.28,1.11,1.92,1.66l-1.31,9.52c-.47,.22-.94,.44-1.4,.67-2.73-.83-5.46-1.66-8.19-2.48-1.19-.36-1.96,1.43-.77,1.79,2.12,.64,4.24,1.29,6.35,1.93-1.4,.66-2.79,1.33-4.19,1.99-.01,0-.03-.01-.04-.02-2.73-.83-5.47-1.66-8.2-2.49-1.19-.36-1.96,1.43-.77,1.79,2.14,.65,4.28,1.3,6.42,1.95-.11,.05-.23,.11-.34,.16-2.24,1.06-4.48,2.13-6.72,3.19-1.13,.54-.39,2.34,.75,1.8,2.01-.96,4.03-1.91,6.04-2.87-.78,1.51-1.56,3.03-2.33,4.54-.57,1.12,1.22,1.87,1.79,.77,1.15-2.23,2.29-4.45,3.44-6.68,1.33-.63,2.65-1.26,3.98-1.89-.79,1.53-1.58,3.07-2.37,4.6-.57,1.12,1.22,1.87,1.79,.77,1.16-2.25,2.31-4.5,3.47-6.74,.85-.4,1.7-.81,2.55-1.21,.02-.01,.05-.02,.07-.04l6.05,4.71-.25,1.86c-2.05,1.87-4.09,3.74-6.14,5.6-.92,.84,.25,2.4,1.18,1.55,1.52-1.39,3.03-2.77,4.55-4.16l-.66,4.81c-1.94,1.77-3.88,3.54-5.81,5.31-.92,.84,.25,2.4,1.18,1.55,1.41-1.29,2.82-2.57,4.23-3.86l-.99,7.24c-.17,1.24,1.76,1.51,1.93,.26,.35-2.54,.69-5.09,1.04-7.63,1.09,1.74,2.18,3.48,3.27,5.22,.67,1.06,2.21-.12,1.55-1.18-1.47-2.35-2.94-4.7-4.41-7.04l.56-4.14c1.01,1.62,2.03,3.23,3.04,4.85,.67,1.06,2.21-.12,1.55-1.18-1.39-2.22-2.79-4.45-4.18-6.67l.29-2.16,7.1-2.89c.6,.52,1.21,1.05,1.81,1.57,.26,2.73,.52,5.47,.78,8.2,.12,1.25,2.05,.99,1.93-.26-.19-2.03-.39-4.06-.58-6.09,1.13,.98,2.27,1.97,3.4,2.95,.27,2.84,.54,5.67,.81,8.51,.12,1.25,2.05,.99,1.93-.26-.2-2.13-.41-4.27-.61-6.4,.1,.09,.21,.18,.31,.27l5.62,4.88c.95,.82,2.14-.71,1.2-1.53-1.67-1.45-3.35-2.91-5.02-4.36,1.69,.14,3.38,.29,5.07,.43,1.24,.11,1.51-1.82,.26-1.93-2.61-.22-5.22-.44-7.82-.67-1.14-.99-2.29-1.98-3.43-2.98,1.81,.15,3.62,.31,5.43,.46,1.24,.11,1.51-1.82,.26-1.93-2.73-.23-5.46-.46-8.18-.7-.5-.43-1-.86-1.5-1.3l1.31-9.52c.63-.3,1.25-.6,1.88-.89,2.62,.9,5.24,1.81,7.86,2.71,1.18,.41,1.95-1.38,.77-1.79-2.04-.7-4.08-1.41-6.12-2.11,1.35-.64,2.7-1.28,4.04-1.92,.05,.04,.11,.06,.16,.08Zm-11.83,3.31c-1.75,.83-3.5,1.66-5.25,2.49l.81-5.94,4.44,3.45Zm-6.37-3.7l-.81,5.93c-1.47-1.27-2.93-2.54-4.4-3.81l5.2-2.12Zm-6.77,3.34c1.64,1.42,3.28,2.84,4.92,4.27-1.96,.93-3.93,1.87-5.89,2.8l.97-7.07Zm.22,8.65c1.75-.83,3.5-1.66,5.25-2.49l-.81,5.94-4.44-3.45Zm6.37,3.7l.81-5.93c1.47,1.27,2.93,2.54,4.4,3.81l-5.2,2.12Zm6.77-3.34c-1.64-1.42-3.28-2.84-4.92-4.27,1.96-.93,3.93-1.87,5.89-2.8l-.97,7.07Z"/></g></g></svg>